<svg width="48" height="48" viewBox="0 0 48 48" fill="none" xmlns="http://www.w3.org/2000/svg">
<path d="M28.5 41C28.5 42.004 27.5687 43.3788 24.9723 44.5905C22.4976 45.7453 18.9735 46.5 15 46.5C11.0265 46.5 7.50237 45.7453 5.02773 44.5905C2.43129 43.3788 1.5 42.004 1.5 41C1.5 39.996 2.43129 38.6212 5.02773 37.4095C7.50237 36.2547 11.0265 35.5 15 35.5C18.9735 35.5 22.4976 36.2547 24.9723 37.4095C27.5687 38.6212 28.5 39.996 28.5 41Z" stroke="#152C5B" stroke-width="3"/>
<path d="M27.5 13.9541C27.5 17.5372 26.0057 24.0892 23.525 29.7665C22.2901 32.5926 20.8536 35.1004 19.3157 36.8757C17.7493 38.6838 16.2863 39.5 15 39.5C13.7137 39.5 12.2507 38.6838 10.6843 36.8757C9.14637 35.1004 7.70988 32.5926 6.47502 29.7665C3.99433 24.0892 2.5 17.5372 2.5 13.9541C2.5 7.08055 8.0918 1.5 15 1.5C21.9082 1.5 27.5 7.08055 27.5 13.9541Z" fill="white" stroke="#152C5B" stroke-width="3"/>
<circle cx="15" cy="14" r="4.5" stroke="#FF498B" stroke-width="3"/>
</svg>
