<svg width="48" height="48" viewBox="0 0 48 48" fill="none" xmlns="http://www.w3.org/2000/svg">
<mask id="path-1-inside-1" fill="white">
<path fill-rule="evenodd" clip-rule="evenodd" d="M19.5616 7C18.6438 7 17.8439 7.62459 17.6213 8.51493L17 11H8C3.58172 11 0 14.5817 0 19V33C0 37.4183 3.58172 41 8 41H40C44.4183 41 48 37.4183 48 33V19C48 14.5817 44.4183 11 40 11H31L30.3787 8.51493C30.1561 7.62459 29.3562 7 28.4384 7H19.5616Z"/>
</mask>
<path d="M17.6213 8.51493L14.7108 7.78732L14.7108 7.78732L17.6213 8.51493ZM17 11V14H19.3423L19.9104 11.7276L17 11ZM31 11L28.0896 11.7276L28.6577 14H31V11ZM30.3787 8.51493L33.2892 7.78732V7.78732L30.3787 8.51493ZM20.5317 9.24254C20.4204 9.6877 20.0204 10 19.5616 10V4C17.2672 4 15.2673 5.56148 14.7108 7.78732L20.5317 9.24254ZM19.9104 11.7276L20.5317 9.24253L14.7108 7.78732L14.0896 10.2724L19.9104 11.7276ZM8 14H17V8H8V14ZM3 19C3 16.2386 5.23858 14 8 14V8C1.92487 8 -3 12.9249 -3 19H3ZM3 33V19H-3V33H3ZM8 38C5.23858 38 3 35.7614 3 33H-3C-3 39.0751 1.92487 44 8 44V38ZM40 38H8V44H40V38ZM45 33C45 35.7614 42.7614 38 40 38V44C46.0751 44 51 39.0751 51 33H45ZM45 19V33H51V19H45ZM40 14C42.7614 14 45 16.2386 45 19H51C51 12.9249 46.0751 8 40 8V14ZM31 14H40V8H31V14ZM27.4683 9.24254L28.0896 11.7276L33.9104 10.2724L33.2892 7.78732L27.4683 9.24254ZM28.4384 10C27.9796 10 27.5796 9.6877 27.4683 9.24254L33.2892 7.78732C32.7327 5.56149 30.7328 4 28.4384 4V10ZM19.5616 10H28.4384V4H19.5616V10Z" fill="#152C5B" mask="url(#path-1-inside-1)"/>
<circle cx="24" cy="26" r="6.5" stroke="#FF498B" stroke-width="3"/>
<path d="M36 17L41 17" stroke="#152C5B" stroke-width="3" stroke-linecap="round" stroke-linejoin="round"/>
</svg>
